<?xml version="1.0" encoding="UTF-8"?>
<svg version="1.1" viewBox="0 0 1776 908" width="444" height="227" xmlns="http://www.w3.org/2000/svg">
<path transform="translate(0)" d="m0 0h1776v908h-1776z"/>
<path transform="translate(846,369)" d="m0 0h47l1 1v206l-7 1h-34l-7-1-1-1 1-12-6 4-9 7-11 4-21 3-23-4-16-8-9-7-5-4-8-10-8-16-3-9-3-17v-9l3-18 6-17 6-10 9-10 8-7 15-8 15-4 11-1h9l14 2 13 5 12 8v-67z" fill="#FEFFFE"/>
<path transform="translate(1365,376)" d="m0 0h47l3 5 14 30 13 29 18 40 18 39 11 25 12 27 2 5h-54l-6-12-9-22-94 1-13 31-2 3h-22l-31-1 2-5 16-35 15-33 12-26 13-29 7-15 19-41 5-13z" fill="#FEFFFE"/>
<path transform="translate(275,373)" d="m0 0h13l17 2 19 5 16 8 11 8 12 11 2 5-27 27-3 4h-2l-7-8-10-7-10-5-11-3-7-1h-9l-11 2-12 4-11 7-9 10-6 13-3 11-1 7v9l5 18 5 10 6 8 13 9 13 5 8 1h17l10-2 16-8 9-7 6-5 7 7 8 7 16 16-2 4-9 10-10 8-17 9-19 6-16 2h-20l-20-3-19-7-15-8-11-9-6-5-10-13-8-14-7-21-2-18v-11l1-4 1-14 6-18 8-15 8-11 13-13 14-9 15-7 14-4 10-2z" fill="#FEFFFE"/>
<path transform="translate(1096,423)" d="m0 0h32l19 4 10 4 11 8 7 7 6 10 5 15v105l-6 1h-38l-2-1v-12l-4 2-8 6-11 5-19 3-18-1-12-3-12-6-9-8-6-10-4-13v-10l3-12 5-10 8-8 10-6 8-3 14-2 13-1 39-1-1-7-4-7-5-4-8-3-7-1h-16l-16 2-18 6-3-1-11-34 8-4 21-7z" fill="#FEFFFE"/>
<path transform="translate(616,423)" d="m0 0h29l20 4 16 8 10 9 6 8 4 8 4 14 1 50v52l-2 1h-24l-23-1 1-10 1-3-14 10-10 4-12 2h-23l-10-2-16-8-10-10-5-10-2-7v-19l4-11 7-9 7-6 12-6 17-3 9-1 43-1-1-6-5-9-8-5-9-2h-22l-16 3-15 5-2-2-9-29-1-4 4-3 21-7z" fill="#FEFFFE"/>
<path transform="translate(379,426)" d="m0 0h49l1 83 2 10 4 8 7 6 5 2 13 1 10-3 6-4 5-6 3-8 1-6 1-83h49v150l-1 1h-46l-2-1v-13l-11 9-15 6-18 2-19-2-15-6-8-6-5-4-8-11-5-11-3-13z" fill="#FEFFFE"/>
<path transform="translate(1523,377)" d="m0 0h50v199h-51v-198z" fill="#FEFFFE"/>
<path transform="translate(1015,423)" d="m0 0h12l1 2v45l-26 2-10 4-9 8-5 12-1 6v74l-2 1h-47l-1-1v-150h48l1 1v17l5-5 8-7 12-6z" fill="#FEFFFE"/>
<path transform="translate(802,464)" d="m0 0h17l10 4 8 7 6 9 2 7v20l-4 10-6 8-8 6-11 4h-11l-13-5-8-6-6-9-3-9-1-9 2-12 3-8 7-9 10-6z"/>
<path transform="translate(1386,432)" d="m0 0 3 1 6 16 11 25 10 24v2l-6 1-52-1 2-6 22-52z"/>
<path transform="translate(624,514)" d="m0 0h31l2 1v12l-3 9-7 8-6 4-5 2h-16l-10-5-4-6-1-3v-10l3-6 10-5z"/>
<path transform="translate(1106,514)" d="m0 0h30l2 1v12l-3 9-7 8-6 4-6 2h-15l-9-5-5-6-1-2v-11l4-7 9-4z"/>
</svg>
