<?xml version="1.0" encoding="UTF-8"?>
<svg version="1.1" viewBox="0 0 2048 756" width="279" height="103" xmlns="http://www.w3.org/2000/svg">
<path transform="translate(0)" d="m0 0h2048v756h-2048z" fill="#0B1521"/>
<path transform="translate(350,42)" d="m0 0 10 2 6 4 6 7 2 5v7l-5 9-6 8-2 1 5 5 8 18-1 10 10 9 19 13 15 11 10 8 10 9 11 9 3 3 3 2-4 1h-23l-4-2-9-11-7-7-16-12-10-5-28-11-14-9-12-9h-5l2 5 7 7 18 11 28 13 16 9 16 12 6 6v2l-109 1-12 2-13 7-7 8-3 6-1 5-1 112-4-1-43-43-7-8-12-14-5-9-1-19 1-28 3-21 6-15 8-12 9-11 10-9 13-8 11-5 17-5 12-2h23l4-1-3-7-14-4-10-7-6-12v-8l6-10 8-6 4-1h9l9 4 6 8 4 6-2 12-3 5-1 5 5 9 4 5 4 2h32l-7-16-4-10-14-4-5-4-5-8-1-8 2-7 8-10 5-3z" fill="#FBFBFB"/>
<path transform="translate(616,385)" d="m0 0 7 6 33 33 8 7 20 20 3 5v46l-2 14-6 21-6 9-8 9 9 2 7 5 7 10v14l-3 7-7 6-3 1h-7l-10-5-7-8-2-5 2-1 11 6 7 3h6l1-2v-14l-3-4v-2l-10-2v2l4 1 3 6-1 3-6 1-5-3-2-5 5-5v-2h-3v-7l1-1-13-1 3-3 13-5 6-6v-5h-5l-8 6-18 3 3 7 3 4 4 10 3 4-2 5-5 4-6 4-13 3-11 2 4 13 10 15 6 7 12 8 15 7 2 6-1 1h-10l-16-8-10-9-8-9-9-15-6-11-1-1h-34l-4-2-7-8-11-11-11-9-11-10-8-7-20-18-2-4 1-1h89l10-2 8-4 6-5 5-10 3-14v-100z" fill="#FBFBFB"/>
<path transform="translate(196,410)" d="m0 0 7 6 26 26 8 7 10 10 8 7 13 13 1 2 1 16 4 9 7 8 8 5 6 2 9 1h54l5 3 24 24 8 7 10 9 8 7 10 9 9 8v2h-152l-11-2-16-6-14-8-12-11-12-12-7-11-5-11-4-16-3-16z" fill="#FBFBFB"/>
<path transform="translate(469,112)" d="m0 0 4 1 108 1 21 1 23 5 16 8 12 9 13 13 9 14 6 14 5 20 1 12v75l-1 28-7-6-12-13-15-15-8-7-18-18-7-8-4-5-1-7v-22l-3-10-5-8-5-4-12-5-3-1-44-1-9-7-17-17-8-7-12-12-7-8-10-11-10-8z" fill="#FBFBFB"/>
<path transform="translate(1369,232)" d="m0 0h27l2 1 1 3v150l-1 9-4 2h-22l-3-3v-9l-9 6-5 4-16 5h-19l-13-4-11-6-10-9-6-8-6-12-3-13v-20l3-12 4-9 6-9 9-8 16-8 13-4h15l15 4 12 6 5 4-1-7v-51z" fill="#FBFBFB"/>
<path transform="translate(118,268)" d="m0 0h12l8 5 8 8 17 3 12 4 11 6 10 9 7 7 7 8 11 13 11 12 9 10 11 12 16 15 2 4v18l-3 1-6-5 4 7 1 4 3 5v18l-4-2-3-3-5-3-3-1 7 9v3l-12-12-7-8-7-6 6 7 16 16 4 5 5 5 3 4v23l-7-6-25-25-8-7-21-21-8-7-3-7v-22l-7-6-5-6-4-7-8-10-10-14-12-12-11-7h-20l-7-3-6-5-4-6-1-3v-11l4-8 7-6z" fill="#0D1621"/>
<path transform="translate(1788,278)" d="m0 0 20 2 12 3 10 6 7 7 5 9 4 10 2 20v59l-2 2-6 1h-18l-3-2-1-9-13 9-9 3-7 1h-18l-13-3-9-6-8-9-5-11-1-10 4-11 5-8 5-5 8-4 12-3 7-1 20-1h22l-3-9-6-8-5-3-3-1h-28l-11 3-6 3-5-1-7-16 1-4 8-5 17-5z" fill="#FBFBFB"/>
<path transform="translate(1178,279)" d="m0 0h10l16 2 10 3 9 6 8 8 6 12 2 11 1 32v42l-6 2h-20l-3-3-1-7-7 4-5 4-14 4-4 1h-18l-12-4-9-6-8-9-5-11v-13l7-14 7-7 11-5 17-3 41-1-3-9-6-8-6-3-4-1h-23l-13 3-7 4h-5l-8-18 1-4 7-4 10-4z" fill="#FBFBFB"/>
<path transform="translate(1580,279)" d="m0 0h12l19 3 9 4 8 6 7 8 4 8 2 12v75l-3 2h-21l-4-4-1-8-8 8-8 4-11 3h-18l-12-3-9-5-5-4-7-11-2-8v-14l4-10 6-7 12-6 12-3 20-2 26-1-4-11-6-7-6-2h-29l-11 3-4 3-5-1-3-5-2-5-3-4v-5l8-5 10-4z" fill="#FBFBFB"/>
<path transform="translate(980,281)" d="m0 0 27 1 2 3v63l4 13 7 8 7 3h17l10-4 6-5 5-10 2-10 1-60 4-2 24 1 2 3v76l-1 34-3 2h-23l-3-2-1-9-6 3-7 6-21 6h-11l-16-5-9-5-6-5-7-11-5-15-1-8v-69z" fill="#FBFBFB"/>
<path transform="translate(894,278)" d="m0 0h16l19 5 9 5 10 8 4 5 1 3-8 7-9 7-6-1-8-7-8-4h-22l-9 4-8 7-4 9-1 4v19l4 10 7 8 6 4 7 2h15l10-3 11-7 2-2 5 1 14 10 1 5-5 6-11 8-10 5-17 4h-13l-16-3-12-5-9-6-9-9-8-14-3-11-1-8v-12l3-15 7-14 8-9 11-7 11-5z" fill="#FBFBFB"/>
<path transform="translate(459,521)" d="m0 0 22 1 4 4 7 9 9 9 11 9 10 9 10 8 12 11 5 5 3 4-3 1-24 1-10 1 3 2 3 10 9 16 7 9 8 7 6 4v2l22-12 4-1-4-10-6-14-5-10v-4l6 1 6 7 9 19 4 12 7 10 4 11v10l-3 7-7 6-9 3-12-2-8-7-6-10-3-10-6-2-11-8-9-11-15-25-5-10-1-1h-20l-5-5-6-9-12-11-14-11-16-13-15-13-5-6 1-2h30l6 4 5 6 8 7 10 9 12 11 15 15 10 13 5 4v-2h2l-7-14-10-13-12-12-11-9-15-13-5-6z" fill="#FAFAFA"/>
<path transform="translate(1503,278)" d="m0 0h5l2 5 1 20-1 2-15 3-9 5-10 9-3 5-1 22-1 46-4 2h-22l-4-3v-110l1-2h28l2 6v6l9-4 8-7z" fill="#FBFBFB"/>
<path transform="translate(616,339)" d="m0 0 5 3 17 16 11 13 13 17 8 9 10 8 16 8 12 11 9 11 5 6 3 2v2l10-1h13l8 4 8 9 2 6v7l-3 6-9 9-5 3-10 1-8-3-6-5-4-7-1-4v-8l1-4v-7l-10-9-9-11-11-13v-2h-3l-1 25-4-2-8-7-50-50-5-4-4-7-1-25z" fill="#FBFBFB"/>
<path transform="translate(150,185)" d="m0 0h11l10 5 7 9 1 3v12l-4 12 9 10 6 8 5 9 11 19 15 16 7 8 10 10 8 7 16 15 6 7 1 2v32l-6-4-10-10-7-8-10-11-9-11-14-15-16-16-2-5 4-4v-13l-4-6-8-9-10-15-10-11-6 1h-9l-10-5-6-8-2-5v-13l4-8 8-6z" fill="#FBFBFB"/>
<path transform="translate(118,268)" d="m0 0h12l8 5 8 8 17 3 12 4 11 6 10 9 7 7 7 8 11 13 11 12 9 10 11 12 16 15 1 3v16l-2 1-9-7-26-26-12-16-7-9-10-13-11-17-7-7-13-9-8-3-12-1-6 1v8l6 8 8 7 12 12 11 15 9 11 6 7 2 4-1 5-4-2-6-4-7-7-11-15-8-11-12-12-11-7h-20l-7-3-6-5-4-6-1-3v-11l4-8 7-6z" fill="#FBFBFB"/>
<path transform="translate(614,289)" d="m0 0 4 1 25 25 11 14 15 20 8 12 5 5 7 4 23 12 13 5 4-2 14-11 3-1h10l9 4 5 5 3 6v15l-3 6-8 6-6 2h-10l-7-3-6-5-7-13v-2l-10-2-13-5-16-12v19l-2 5-6-3-9-9-12-16-9-11-9-10-13-13-10-8-1-2v-11l8 6 13 12 6 2 1-4-2-5-11-8-13-12-4-6z" fill="#FBFBFB"/>
<path transform="translate(374,522)" d="m0 0h23l6 5 7 8 7 7 11 9 15 12 13 10 10 9 9 6 9 7 8 30 1 6v13l-1 1 14 6 8 9 2 6v9l-4 7-8 7-6 2h-11l-9-4-6-8-2-5v-12l7-9 4-4h2l1-9-5-27-5-13-2-6-2-1-24-1-6-4-10-11-8-7-7-7-8-7-15-15-8-7-9-8z" fill="#FBFBFB"/>
<path transform="translate(1335,304)" d="m0 0 12 1 9 4 7 7 5 10 1 4v17l-3 10-6 8-8 6-11 3h-16l-10-4-5-4-5-7-4-12v-15l3-10 4-6 7-7 11-4z" fill="#0C1521"/>
<path transform="translate(1890,280)" d="m0 0h27l3 2v112l-2 2-4 1h-19l-4-2-1-4z" fill="#FBFBFB"/>
<path transform="translate(451,248)" d="m0 0h11l19 3 16 5 5 3 13 4 8 4 12 7 7 7 3 7-1 4-5-1-9-6-14-10-12-7-22-6-13-2h-24l-17 4-12 5-10 8-9 8-9 11-6 10-6 16-7 32-3 16-9 21-7 8h-2l-1-2v-9l7-14 6-28 4-21 8-21 9-16 14-15 8-7 15-9 18-7z" fill="#FBFBFB"/>
<path transform="translate(495,531)" d="m0 0 5 3 8 4 13 12 11 9 11 10 8 7 12 12v2l10 2-4 2-7-2 5 13 6 12 4 9 1 4-16 8-9 5h-2l-4-4-8-6-8-9-8-13-5-11-1-5-3-3 11-1 24-1 2-1-5-6-11-9-11-10-11-9-10-9-7-8-2-4z" fill="#0D1621"/>
<path transform="translate(663,535)" d="m0 0h5l1 1v5l-7 7-15 6 15 1-3 2-1 7h3l1 3-5 5 3 5 7 1 2-1-2-8-4-1v-2h7l5 5 2 3v14l-2 3-9-1-11-6-5-2 4 8 7 6 7 3 13 1 8-5 2-4 4 1v-14l-10-19-2-4 1-1h7l5 5 7 14 1 5v10l-2 9-6 11-8 7-7 3h-15l-8-3-11-9-6-7-5-12v-3l-3-1 7-3 8-6 1-4-4-6-4-10-4-5v-4l13-3 7-2z" fill="#2C282D"/>
<path transform="translate(722,529)" d="m0 0h7l8 6 2 3-1 7-4 6-10 10-6 4-1 7 2 7v15l-4 12-6 11-6 7-9 6-13 4h-10l-18-4-11-7-11-11-6-10-3-14 3-1 10 15 8 10 11 7 14 5h16l10-5 7-7 6-10 2-9v-19l-4-16-5-4-1-5 6-8 11-9z" fill="#FBFBFB"/>
<path transform="translate(429,112)" d="m0 0 9 1 27 1 14 18 14 15 19 19 8 7 7 7 4 3v2h-21l-9-3-12-12-8-7-10-9-11-9-11-10-8-7-11-10-3-5z" fill="#FBFBFB"/>
<path transform="translate(460,304)" d="m0 0h12l16 4 11 7 14 12 6 7 9 16 7 20 2 13v27l-4 13-3 13-4 5-3-1-1-2v-11l3-15 1-11v-29l-3-12-5-12-7-9-11-11-11-7-12-5-11-2h-8l-8 2-8 5-7 6-7 10-10 19-3 1-1-5 2-13 4-8 8-10 7-7 16-8z" fill="#FBFBFB"/>
<path transform="translate(382,113)" d="m0 0h32l7 4 9 11 14 13 11 9 11 10 8 7 10 9 7 6-1 2h-17l-10-2-23-23-38-28-16-11-5-4z" fill="#FBFBFB"/>
<path transform="translate(454,285)" d="m0 0h19l7 3 1 3-2 5h-8l-12-1-15 4-14 7-10 10-9 14-5 10-1 5-2 25-1 8-7 20-10 17-11 14-3 1-2 4-6 3-3-3-1-6 9-10 8-9 7-11 6-15 4-14 4-22 3-11 2-9 7-14 9-10 7-6 15-8 9-3z" fill="#FBFBFB"/>
<path transform="translate(461,322)" d="m0 0h9l12 3 11 6 10 8 7 9 5 11 4 12 1 10v15l-2 19-4 20-6 16-5 10-6 2-2-4 9-24 2-13 2-32v-15l-3-15-5-10-9-10-11-7-3-1h-16l-8 3-8 7-6 10-5 9-4 2-1-1v-8l5-12 8-11 11-7z" fill="#FBFBFB"/>
<path transform="translate(199,374)" d="m0 0 6 5 7 8 45 45 4 5 5 5 3 4v23l-7-6-25-25-8-7-21-21-8-7-3-7v-17z" fill="#FBFBFB"/>
<path transform="translate(445,268)" d="m0 0h7l1 1v6l-5 3-16 6-12 6-10 8-7 8-4 6-7 19-3 4v14l-5 21-3 12-8 17-12 16-7 4-3-4 1-6 12-16 6-10 4-13 5-27 5-21 8-16 6-9 8-9 15-10 17-8z" fill="#FBFBFB"/>
<path transform="translate(614,255)" d="m0 0 7 6 37 37 8 7 10 9 7 6 3 5 1 4v14l-1 16-4-2-12-18-11-16-10-13-11-12-20-20-4-7z" fill="#FBFBFB"/>
<path transform="translate(451,62)" d="m0 0h9l8 3 6 5 4 8 1 8-2 8-6 12-2 1h-6l-5-1-12-1-6-4-6-8-2-6 1-9 6-9 5-4z" fill="#FBFBFB"/>
<path transform="translate(459,342)" d="m0 0 8 1 4 9 2 4-1 4-7-4-4-4h-4l-2 8h6l7 5-1 3-11 4-2 3-3 16-4 16-4 11-3 5-3 12-7 11-10 13-9 9-4 5-2 1h-9l-1-4 9-10 12-12 11-14 6-10 3-11 4-20 2-21 3-12 6-11 5-6z" fill="#FBFBFB"/>
<path transform="translate(1795,345)" d="m0 0h13l8 1 2 2v9l-4 9-4 6-9 6-6 2h-17l-8-4-5-8-1-10 2-5 6-4 12-3z" fill="#0D1621"/>
<path transform="translate(1180,346)" d="m0 0h23l6 2 1 1v8l-5 12-4 5-9 5-5 1h-16l-7-3-5-6-2-5v-10l2-4 10-4z" fill="#0D1621"/>
<path transform="translate(1598,345)" d="m0 0 11 1 2 1 1 3-1 13-4 9-8 5-9 3h-16l-8-4-4-6-1-3v-12l5-5 15-4z" fill="#0D1621"/>
<path transform="translate(414,239)" d="m0 0h6l2 4v3l-17 9-11 8-10 9-13 17-8 16-5 15-6 29-1 3-1 12-4 6-4-2-1-7 4-31 7-25 5-12 11-16 11-13 8-8 17-12z" fill="#FBFBFB"/>
<path transform="translate(197,337)" d="m0 0 5 5 12 16 11 13 13 14 8 7 15 13 5 4 3 5v18l-4-2-9-9-7-8-15-16-29-29-6-7-3-9v-11z" fill="#FBFBFB"/>
<path transform="translate(470,363)" d="m0 0h5l2 4 3 1 5 9 1 6v13l-2 17-6 19-12 26-10 15-5 6-9 2-3-2 2-6 10-10 6-10 11-23 5-17 1-8v-25l-3-13z" fill="#FBFBFB"/>
<path transform="translate(628,584)" d="m0 0h8l5 13 6 8 11 9 8 3h15l10-5 6-7 5-11 1-6 1 4 2 1v6h2l-1 5-7 10-7 7-9 4h-16l-14-5-11-7-7-8-10-15-1-3-2 1 3 14 6 11-2 3 4 2 8 7 8 5-3 1-6-2-9-6-9-11-7-11-4-13 4-2z" fill="#1D1D25"/>
<path transform="translate(1689,361)" d="m0 0h7l10 5 4 5 3 7-1 8-4 6-7 6-9 2-6-2-8-7-3-5-1-7 3-9 8-7z" fill="#FBFBFB"/>
<path transform="translate(684,554)" d="m0 0h7l5 5 7 14 1 5v10l-2 9-6 11-8 7-7 3h-15l-8-3-11-9-6-7-4-10v-5l8-1 3 5 4 10 5 5 4 3 7 2h8l8-2 5-5 5-9 1-4v-10l-10-19-2-4z" fill="#FBFBFB"/>
<path transform="translate(491,294)" d="m0 0 8 1 8 4 14 12 12 12 7 10 8 20 2 8 1 9v25l-4 2-3-5-3-27-5-17-5-10-9-12-8-8-13-10-12-7z" fill="#FBFBFB"/>
<path transform="translate(461,268)" d="m0 0h12l14 3 15 5 15 9 14 10 8 8 8 10 3 6 1 10h-4l-9-11-7-8-11-10-15-10-11-5-18-6h-9l-6-3-1-4z" fill="#FBFBFB"/>
<path transform="translate(446,230)" d="m0 0h23l17 3 18 5 14 7 10 8 4 6v3l-7-1-23-12-20-6-17-2h-17l-15 1-4-4v-4l9-3z" fill="#FBFBFB"/>
<path transform="translate(1899,226)" d="m0 0h10l8 5 4 5 1 4v11l-6 7-10 3-9-1-7-4-5-8-1-7 4-6 8-8z" fill="#FBFBFB"/>
<path transform="translate(465,383)" d="m0 0h3v9l-4 23-5 16-8 16-12 18-11 13-7 2-5-2 2-4 6-8 9-10 9-13 8-17 3-10 4-24 5-8z" fill="#FBFBFB"/>
<path transform="translate(429,374)" d="m0 0 5 1 1 6-2 15-3 10-6 15-10 16-11 14-10 10-3 2-7-1-1-6 9-10 12-12 9-13 8-16 5-23 3-7z" fill="#FBFBFB"/>
<path transform="translate(322,116)" d="m0 0h5l16 12 12 7 33 13 14 10 13 12 8 9v2l4 2-12-1-7-8-18-13-23-12-22-10-15-10-8-8-1-4z" fill="#151A24"/>
<path transform="translate(411,373)" d="m0 0h8l2 1-2 11-13 30-10 15-5 6-5 5-9 8-4 1-3-3v-5l18-18 6-8 8-13 6-17 2-11z" fill="#FBFBFB"/>
<path transform="translate(409,522)" d="m0 0 2 1 3 5 12 11 11 9 14 11 13 11 11 10 6 10 5 2v2l-3 1-8-6-6-4-14-12-18-14-16-13-12-11-10-11 3-1 7 1z" fill="#1E1E25"/>
<path transform="translate(196,352)" d="m0 0 2 4 3 7 43 43 7 8 10 11h-3l-4-2 7 9v3l-12-12-7-8-8-6-7-6-22-22-5-6-4-2-6-5-5-6 1-2 7 6 5 3 1-5-5-8h2z" fill="#1D1D25"/>
<path transform="translate(205,307)" d="m0 0 4 2 13 13 6 3 13 15 12 13 7 8 8 7 1-31h1v33l-3 3 2 3v7l-4-5-16-15-16-17-7-8-10-11-6-8-2-4-2-5z" fill="#1C1C24"/>
<path transform="translate(473,339)" d="m0 0h6l10 8 6 8 5 16 1 9v13l-2 25-3 4h-4l-1-9 1-16v-18l-3-13-6-10-5-6-9-6-1-3z" fill="#FBFBFB"/>
<path transform="translate(451,214)" d="m0 0h12l27 3 11 3 4 5v4h-7l-24-5-16-1-22 2-11 3-6-1-4-5 3-3 16-3z" fill="#FBFBFB"/>
<path transform="translate(206,337)" d="m0 0 5 1 11 14 9 12 9 10 21 21 7 4 1-15h1v18l-3 1-6-5 4 7 1 2-5-1-10-9-8-7-12-11-3-6-7-8-5-7v-2h-2l-6-8-4-5-1-4 4 2z" fill="#2B272D"/>
<path transform="translate(402,224)" d="m0 0 4 1 4 4v2h-2l-1 3-14 8-11 10-20 20-8 11-3 4h-2l2-13 4-8 9-10 8-7 15-15 13-9z" fill="#FBFBFB"/>
<path transform="translate(615,273)" d="m0 0 4 5 28 28 13 17 10 14v5l3 5v2h-2l-3-3-4-2-12-16-8-10-9-10-5-5-3-6-3-2v-2l-4-2-5-7z" fill="#1D1D25"/>
<path transform="translate(394,127)" d="m0 0 5 1 18 13 16 12 10 8 20 20-2 1-5-1v2h-6v-3l-11-10-11-9-8-7-18-13-8-5-2-6z" fill="#1C1D25"/>
<path transform="translate(378,529)" d="m0 0 6 4 17 16 12 12 8 7 7 7 8 7 4 6h-5l-5-3-5-2-7-6-11-10-11-9-7-7-8-7-3-6-5-5v-2l3-1 2 1z" fill="#1C1D24"/>
<path transform="translate(198,400)" d="m0 0 5 5 13 12 19 19 8 7 4 5 2 4 6 7 5 7v2l2 1-4 1-9-9-8-7-10-10-8-7-22-22-2-6-2-3z" fill="#1C1C24"/>
<path transform="translate(153,194)" d="m0 0h7l5 3 4 8v7l-3 6-8 5-8-1-5-5-3-5v-8l4-6 4-3z" fill="#0D1622"/>
<path transform="translate(453,71)" d="m0 0 8 1 5 4 2 4v10l-4 5-6 4-9-1-7-6-2-4 1-8 8-7z" fill="#0E1622"/>
<path transform="translate(460,533)" d="m0 0 6 3v2l5 2 8 4 15 14 9 10 9 14 2 7h-2v2l-4-2-6-7-9-11-19-19-7-6-3-5-5-6z" fill="#121923"/>
<path transform="translate(301,65)" d="m0 0h7l6 5 3 8-1 8-6 6-8 1-9-5-3-7 1-7 6-7z" fill="#0E1622"/>
<path transform="translate(663,535)" d="m0 0h5l1 1v5l-7 7-15 6 15 1-3 2-1 7h3l1 3-9 5-1 3-5 3-2 4-6 1 2-4 6-4 2-5-4-6-4-10-4-5v-4l13-3 7-2z" fill="#1E1D25"/>
<path transform="translate(748,382)" d="m0 0h9l5 5 3 8-2 7-5 5-8 1-8-4-3-5v-9l3-5z" fill="#0E1722"/>
<path transform="translate(201,254)" d="m0 0 5 5 13 15 6 8v2l4 6 7 6v2l3 1 7 8 3 3v2l3 1 5 5 3 5-3 1-15-14-12-11-9-9-7-8-9-10-8-14v-2z" fill="#191C25"/>
<path transform="translate(489,657)" d="m0 0h9l6 5 2 4v8l-5 6-5 2-9-1-5-4-3-5 1-8 7-6z" fill="#0E1622"/>
<path transform="translate(573,643)" d="m0 0h8l6 5 2 4v8l-5 6-4 2h-8l-5-3-4-7v-9l4-4z" fill="#0E1722"/>
<path transform="translate(424,119)" d="m0 0 5 1 8 7 3 2v2l4 2 4 3 1-2 7 7 11 9 3 5v2l3 1v2l4 2 15 14 2 1-1 2-7-4-5-1-12-11-14-12-15-13-13-12-2-5z" fill="#1B1C24"/>
<path transform="translate(737,454)" d="m0 0h10l6 4 3 6v7l-5 5-5 2h-9l-6-5-2-5v-6l5-6z" fill="#0E1722"/>
<path transform="translate(618,375)" d="m0 0 7 6 29 29v5l4 2 4 5 8 7 7 8 2 1-1 4-1-3h-6l-13-13-8-7-5-5-3-5-15-16-9-11-2-5z" fill="#1C1C24"/>
<path transform="translate(647,513)" d="m0 0h10l6 4 3 8-1 8-3 3h-3l1-6-4-7-2-1h-7l-2 2 1 3 8 1 3 2-1 5-3 3h-11l-5-4-2-5 1-5 5-8z" fill="#101822"/>
<path transform="translate(122,276)" d="m0 0 5 1 6 4 3 7v6l-4 6-4 2h-9l-5-4-3-6 1-7 5-6z" fill="#0D1622"/>
<path transform="translate(349,51)" d="m0 0h8l5 5 2 3v9l-4 5-6 3-8-1-4-5-1-3v-7l4-6z" fill="#0E1622"/>
<path transform="translate(376,144)" d="m0 0 10 3 11 7 14 12 12 13v2l4 2-12-1-7-8-18-13-9-5-2-5-2-3 1-2h-2z" fill="#2B282D"/>
<path transform="translate(490,431)" d="m0 0 4 1v9l-4 10-10 18-3 5-7 1-2-1 1-5 10-19 6-15z" fill="#FBFBFB"/>
<path transform="translate(703,588)" d="m0 0 1 4 2 1v6h2l-1 5-7 10-7 7-9 4h-16l-14-5-11-7-2-3 3-1 9 4 10 5 13 2 12-3 5-5 5-6 1-5 3-7z" fill="#2C282D"/>
<path transform="translate(616,331)" d="m0 0h2l17 17 13 14 2 5h2v2l4 2 5 2 4 7 1 4 4 6-1 2-4-3-4-1-11-14-9-11-9-10-13-12-2-2z" fill="#1C1C24"/>
<path transform="translate(668,550)" d="m0 0 1 2 13 1 2 2 2 4 10 19v10l-1 4-5 1-2 4-7 4h-6v-2l6-3 5-6 1-4v-14l-8-11-8-4-7-2z" fill="#131924"/>
<path transform="translate(387,246)" d="m0 0 2 1-3 4 8-4h2l1 3-11 8-10 10-10 13-10 16-3 8-1-4 1-9 2-2 3-7 4-6 5-6 1-2-7 5 2-4 13-13 4-5z" fill="#1D1D25"/>
<path transform="translate(495,531)" d="m0 0 5 3 8 4 13 12 6 5 1 4 5 5 1 2-7 1-10-9-11-9-12-13z" fill="#1B1C24"/>
<path transform="translate(227,330)" d="m0 0 3 1 7 8 11 13 9 9 2 1v2h2l1 5 4 5 3 2v7l-4-5-16-15-16-17-5-7-2-5-1-2h3z" fill="#2A272C"/>
<path transform="translate(616,586)" d="m0 0h6l4 16 6 11-2 3 4 2 8 7 8 5-3 1-6-2-9-6-9-11-7-11-4-13z" fill="#121923"/>
<path transform="translate(615,303)" d="m0 0 5 5 12 11 11 8 2 6-2 4-6-2-15-14-5-4-1 9h-1v-14l1-5z" fill="#101823"/>
<path transform="translate(409,522)" d="m0 0 2 1 3 5 12 11 3 3 2 4 3 4-1 2-4 1-10-9-8-7-8-8-4-6 10 1z" fill="#2C282D"/>
<path transform="translate(213,275)" d="m0 0 4 2 7 8 8 7 4 4v2l3 1 7 8 3 3v2l3 1 5 5 3 5-3 1-15-14-12-11-6-8-9-11z" fill="#232128"/>
<path transform="translate(663,535)" d="m0 0h5l1 1v5l-7 7-7 3h-12l-4-2h-2v-4l13-3 7-2z" fill="#0F1722"/>
<path transform="translate(430,152)" d="m0 0 5 2 13 12 15 15-2 1-7-3-5-4-11-8-7-7-5-3v-2l4 1v-2l-2-1z" fill="#2C282D"/>
<path transform="translate(460,533)" d="m0 0 6 3v2l5 2 8 4 12 11 1 4 6 8h-3l-1-3h-2v-2l-4 1-1-5-2-2-7-2-10-10-8-7-1-3z" fill="#1B1C24"/>
<path transform="translate(723,538)" d="m0 0 5 1-1 6-9 10-6 4-5-1v-4l7-11z" fill="#2C282D"/>
<path transform="translate(196,352)" d="m0 0 2 4 3 7 5 5 6 7v3h-3l7 8 3 5-4-2-9-10v-2h-2l1-2-2-4-1 2 1 4-6-3-7-6-5-6 1-2 7 6 5 3 1-5-5-8h2z" fill="#29262C"/>
<path transform="translate(223,387)" d="m0 0 4 2 17 17 7 8 4 5-4-2-7-6v-2h-2l5 7-4-2-23-23 1-2 5 4-3-4z" fill="#161B24"/>
<path transform="translate(388,272)" d="m0 0 6 2-6 7-8 10-8 15-2 5-1-3-1-6 3-4 1-4h2l1-5 6-9 3-3 2-1v-2h2z" fill="#1D1D25"/>
<path transform="translate(619,331)" d="m0 0 4 2 12 11 13 13 11 14v3l-7-5v-2h-2l-6-8-12-13v-2l-4-2-7-7-2-1z" fill="#121923"/>
<path transform="translate(649,366)" d="m0 0 3 1v2l4 2 5 2 4 7 1 4 4 6-1 2-4-3-4-1-10-13z" fill="#1D1D25"/>
<path transform="translate(646,527)" d="m0 0 8 1 3 2-1 5-3 3h-11l-5-4v-2l6-3h3z" fill="#211F27"/>
<path transform="translate(201,326)" d="m0 0 4 4 4 5v3h-2l1 5-4-2 4 6 6 7v2h2l4 6 7 9 3 4-4-2-10-11-13-17-2-5v-4h2l-2-5z" fill="#1C1D25"/>
<path transform="translate(269,337)" d="m0 0h1v33l-3 3-1 2-6-8 1-3h-2v-2l-4-2-12-12-3-5h4l7 8 11 12 6 5z" fill="#1F1E26"/>
<path transform="translate(459,351)" d="m0 0 5 2 4 4 4 2 2-3 2 8-6-1 2 4-1 3v-2h-4l-1-4-5-3-6-1 2-8z" fill="#121923"/>
<path transform="translate(477,124)" d="m0 0 7 5v2h2l9 11 6 7-4 2-7-6-7-7-1-4-4-5z" fill="#1D1D25"/>
<path transform="translate(477,443)" d="m0 0 3 3-1 6-8 15h-3l-5 6-1-2 5-10 6-11z" fill="#1B1C24"/>
<path transform="translate(624,606)" d="m0 0 5 1 3 6-2 3 4 2 8 7 8 5-3 1-6-2-9-6-9-11v-5z" fill="#1E1D25"/>
<path transform="translate(708,569)" d="m0 0h1l1 5v19l-1 6h-3l-2-7v-15l1-6 2 1z" fill="#151A24"/>
<path transform="translate(695,578)" d="m0 0h1v10l-1 4-5 1-2 4-7 4h-6v-2l6-3 5-6 2-4 4-4h2z" fill="#1E1E25"/>
<path transform="translate(1367,385)" d="m0 0h2l1 9 2 3-2 1h-13l-5-2 4-3z" fill="#2E2A2F"/>
<path transform="translate(642,515)" d="m0 0 2 1-2 3 3-2h3v3l4 1-7 2 1 6-6 3h-4l-1-6 5-9z" fill="#131923"/>
<path transform="translate(1816,386)" d="m0 0h2l2 9 2 2-7 1h-19l12-6z" fill="#2E2A2F"/>
<path transform="translate(242,409)" d="m0 0h2l9 9 3 1 5 7-4-2-3-1 7 9v3l-12-12-7-8-2-3 4 2v-1z" fill="#201F26"/>
<path transform="translate(1064,386)" d="m0 0h3l2 9 2 2h-16l-4-2 7-4z" fill="#2D292E"/>
<path transform="translate(663,535)" d="m0 0h5l1 1v5l-7 7-4 2-3-1 2-1 1-5 1-2-2-1z" fill="#212027"/>
<path transform="translate(646,314)" d="m0 0 5 1 11 16 6 9-1 2-9-11-3 1-1-5-8-9-1-3z" fill="#2D292E"/>
<path transform="translate(615,303)" d="m0 0 5 5 3 4 4 8-3 3-7-6-1 9h-1v-14l1-5z" fill="#1F1E26"/>
<path transform="translate(618,282)" d="m0 0 4 2 5 5 1 3 4 2 3 4v2l3 1-1 3-9-6-5-5-5-10z" fill="#2C282D"/>
<path transform="translate(1612,384)" d="m0 0h1l1 9 3 4-6 1-5-1h-10l3-2 8-6z" fill="#2B282D"/>
<path transform="translate(202,258)" d="m0 0 4 1 13 15 6 8v2l1 2-4-2-8-10-5-6-3-3z" fill="#151A23"/>
<path transform="translate(341,131)" d="m0 0 6 2 8 4 8 1 7 3 1 3 3 2-1 2-6-3-9-3-17-10z" fill="#1F1E25"/>
<path transform="translate(219,391)" d="m0 0 4 2 18 18-2 2-5-4-7-6-9-9z" fill="#1B1C24"/>
<path transform="translate(366,269)" d="m0 0h2l-2 5-5 5-4 7-2 4h-2l-4-1v-2l5-5 6-8z" fill="#151A24"/>
<path transform="translate(639,548)" d="m0 0 4 2 10 1-6 3 11 1-3 4-6-1-5 3-6-12z" fill="#131923"/>
<path transform="translate(433,154)" d="m0 0 4 2 10 9 8 8-1 3-10-8-6-7h-4l-1-3h2v-2h-2z" fill="#121822"/>
<path transform="translate(668,550)" d="m0 0 1 2 13 1 2 2v3l-4 2-9-3-7-2z" fill="#1F1F26"/>
<path transform="translate(202,406)" d="m0 0 4 2 8 7 14 14v3l-4-2-9-10-8-7-5-5z" fill="#131A24"/>
<path transform="translate(615,273)" d="m0 0 4 5 12 12-1 2h-2l-4-6-5-3 4 8-1 2-5-6-2-3z" fill="#1F1E26"/>
<path transform="translate(441,553)" d="m0 0 4 1 13 11 11 9-1 3-8-6-13-12-6-4z" fill="#131923"/>
<path transform="translate(409,522)" d="m0 0 2 1 3 5 4 4-1 2-8-4v3l-4-2-6-8 10 1z" fill="#1E1E26"/>
<path transform="translate(378,288)" d="m0 0h3l-2 5-8 16-2 2v-6l-1-3 3-4 1-4h2l1-4z" fill="#222127"/>
<path transform="translate(646,282)" d="m0 0 4 2v2l4 2 20 20-1 3-27-27z" fill="#1F1E25"/>
<path transform="translate(360,280)" d="m0 0h2l1 6-7 11-3 8-1-4 1-9 2-2 3-7z" fill="#2A262C"/>
<path transform="translate(631,613)" d="m0 0 4 2 8 8 8 5v4l-3 1-5-3 2-1h2l-9-6-5-5-3-2z" fill="#141A24"/>
<path transform="translate(1207,387)" d="m0 0h3l3 9h-5l-3 1-9-1 5-4z" fill="#2D292E"/>
<path transform="translate(421,573)" d="m0 0 4 2 2 2 5 1 8 9v1h-5l-9-8-6-5z" fill="#1E1E26"/>
<path transform="translate(394,247)" d="m0 0h2l1 3-11 8-6 2-3-1 11-9z" fill="#212027"/>
<path transform="translate(370,142)" d="m0 0 6 1v3h2l1 4 4 5-6-1-6-3v-2l-6-4h3l5 2-3-3z" fill="#1D1D25"/>
<path transform="translate(473,101)" d="m0 0 2 3-4 6 1 2-7-1v-3h-12l-7-2v-1h15l2 1h8z" fill="#2D292E"/>
<path transform="translate(657,330)" d="m0 0 10 10 1-2 5 9v2h-2l-3-3-4-2-8-11z" fill="#1E1E25"/>
<path transform="translate(633,392)" d="m0 0 4 1 17 17-4 1-5-5v-2l-4-2-8-8z" fill="#131A24"/>
<path transform="translate(237,304)" d="m0 0 4 2 4 4 3 1 2 2h2l5 5 3 5-3 1-15-14-5-4z" fill="#161B24"/>
<path transform="translate(723,538)" d="m0 0 5 1-1 6-2 3h-2l1-6h-4l-4 5h-2l-2 4h-2l2-5 5-5z" fill="#201F26"/>
<path transform="translate(269,337)" d="m0 0h1v33l-3 3-1 2-5-6 1-2 3-1 3 2z" fill="#232228"/>
<path transform="translate(220,389)" d="m0 0 6 4 12 12v2h2v2h2l5 7-4-2-23-23z" fill="#0B1521"/>
<path transform="translate(380,540)" d="m0 0 6 4 20 20h-3l-14-13-8-7z" fill="#141A24"/>
<path transform="translate(389,540)" d="m0 0 4 1 21 21-2 1-2-1v-2h-2v-2l-4-2-15-15z" fill="#151B25"/>
<path transform="translate(663,519)" d="m0 0 2 2 1 8-1 4-3 3h-3l1-6v-3l1-4z" fill="#363237"/>
<path transform="translate(645,411)" d="m0 0 1 2 4 2 22 22-1 2-13-13-8-7-5-5z" fill="#171C25"/>
<path transform="translate(697,605)" d="m0 0 2 1-9 11-9 3-6 1v-2h-7v-1l13-1 10-5z" fill="#1E1F27"/>
<path transform="translate(438,167)" d="m0 0 11 7 8 6-1 3h-6v-3l-11-10-2-2z" fill="#1E1F26"/>
<path transform="translate(518,548)" d="m0 0 8 6 2 5 1 2-6-2-5-4v-2h-2l-1-3h2z" fill="#2B272D"/>
<path transform="translate(645,517)" d="m0 0h3v3l4 1-7 2-1 3-6 1 1-5 4-4z" fill="#29262C"/>
<path transform="translate(919,308)" d="m0 0 4 2 7 6 6 1 7-6 2 1-8 9-9-3-9-8z" fill="#2D292E"/>
<path transform="translate(503,544)" d="m0 0 9 6v2h2v2l4 2 10 9 1 2-4-2-14-12-8-7z" fill="#141A24"/>
<path transform="translate(633,619)" d="m0 0 5 2 4 4 8 5-3 1-6-2-8-5v-3z" fill="#232228"/>
<path transform="translate(429,454)" d="m0 0 2 1-1 5-6 7-6 1 4-5 1-3h2l2-4z" fill="#1D1D25"/>
<path transform="translate(409,451)" d="m0 0 2 3-10 10-3-1 2-4z" fill="#1D1D25"/>
<path transform="translate(234,408)" d="m0 0 8 6 2 4 4 2 8 9-1 2-21-21z" fill="#121722"/>
<path transform="translate(1610,320)" d="m0 0 2 3v3l-2 1-35 1v-1l10-1 23-1z" fill="#27242A"/>
<path transform="translate(422,320)" d="m0 0 2 1-1 4 2 1-5 7-4-1 1-4 1-2h2l1-5z" fill="#1C1C24"/>
<path transform="translate(1278,370)" d="m0 0 3 3 7 9 4 5-5-2-6-5-3-6z" fill="#27242A"/>
<path transform="translate(464,354)" d="m0 0 8 5 2-3 2 8-6-1 2 4-1 3v-2h-4l2-6v-2l-5-3z" fill="#2D292E"/>
<path transform="translate(211,341)" d="m0 0 4 2 8 11-1 3-4-5-4-4-3-5z" fill="#191C25"/>
<path transform="translate(650,610)" d="m0 0 4 1 8 5 6 2 7 1v1h-8l-11-4-6-4z" fill="#181B24"/>
<path transform="translate(227,439)" d="m0 0 4 2 18 18h-3l-15-15-4-3z" fill="#171B25"/>
<path transform="translate(433,154)" d="m0 0 4 2 7 6-2 3-4-4h-4l-1-3h2v-2h-2z" fill="#1D1D25"/>
<path transform="translate(475,582)" d="m0 0 3 3 3 5 5 2v2l-3 1-8-6-2-2h2l-1-3z" fill="#2C282D"/>
<path transform="translate(650,570)" d="m0 0 2 3v2l-5 3-2 4-6 1 2-4 6-4z" fill="#201F27"/>
<path transform="translate(387,246)" d="m0 0 2 1-4 5-7 7-3-1 5-6z" fill="#171B24"/>
<path transform="translate(642,533)" d="m0 0 5 1 3 1 5-2-1 4-1 1-10-1z" fill="#0F1722"/>
<path transform="translate(421,573)" d="m0 0 4 2 12 12-4-1-9-7-4-5z" fill="#2D292E"/>
<path transform="translate(661,327)" d="m0 0h2l7 10v2l-5-2-4-8z" fill="#151A24"/>
<path transform="translate(1816,320)" d="m0 0 2 2v5h-21v-1l17-1v-3h2z" fill="#2B272D"/>
<path transform="translate(117,279)" d="m0 0v3l-2 4-1 10-3-4 1-7z" fill="#212027"/>
<path transform="translate(201,254)" d="m0 0 3 3v3l3 5-1 2-6-8-2 1-1-4z" fill="#1E1E26"/>
<path transform="translate(639,548)" d="m0 0 4 2 10 1-6 3 4 2-7 1-1-4-5-4z" fill="#2D292E"/>
<path transform="translate(479,446)" d="m0 0 1 4-5 10-3-1 6-12z" fill="#161B25"/>
<path transform="translate(256,368)" d="m0 0 4 2 6 6h3v7l-4-5-9-8z" fill="#201F27"/>
<path transform="translate(216,324)" d="m0 0 5 5 6 5 2 5-4-2-9-10z" fill="#171B25"/>
<path transform="translate(437,473)" d="m0 0h4l-1 6 2 2-5-1-3-2 1-4z" fill="#2C282D"/>
<path transform="translate(204,375)" d="m0 0 5 3 7 8 3 5-4-2-9-10v-2h-2z" fill="#2D292E"/>
<path transform="translate(447,460)" d="m0 0 2 1v5l-4 3-3-1 2-4z" fill="#1C1C24"/>
<path transform="translate(646,562)" d="m0 0 7 6v4l-2 1v-3l-3-1-2-3z" fill="#101822"/>
<path transform="translate(618,592)" d="m0 0 2 1 2 4v4h2l1-2v3h-5l-3-9z" fill="#1D1C24"/>
<path transform="translate(467,543)" d="m0 0 7 6 5 5-1 2-11-10z" fill="#141924"/>
<path transform="translate(454,148)" d="m0 0h2v2l4 2 8 8h-3l-11-10z" fill="#171C25"/>
<path transform="translate(251,314)" d="m0 0 6 4 3 5-3 1-3-4-3-3z" fill="#1F1E26"/>
<path transform="translate(919,308)" d="m0 0 4 2 7 6 1 3-4-2-8-7z" fill="#222027"/>
<path transform="translate(341,131)" d="m0 0 6 2 10 5 1 2-5-1-12-7z" fill="#2D292E"/>
<path transform="translate(1208,395)" d="m0 0 3 1-1 2h-9l-9-1v-1h15z" fill="#1E1D25"/>
<path transform="translate(666,301)" d="m0 0 7 6v4l-5-5-3-4z" fill="#1A1B23"/>
<path transform="translate(428,159)" d="m0 0 4 1 6 6v2l-4-2-6-5z" fill="#181C25"/>
<path transform="translate(202,370)" d="m0 0 5 5-3 2h2l1 3-2 1-4-9z" fill="#1D1D25"/>
<path transform="translate(649,588)" d="m0 0 5 2 1 3-6 1z" fill="#1C1D25"/>
<path transform="translate(269,384)" d="m0 0h1v18l-2 1v-2l-3-1 3-1z" fill="#2D292E"/>
<path transform="translate(362,141)" d="m0 0 5 1 7 4-1 2-10-5z" fill="#2D292E"/>
</svg>
