<?xml version="1.0" encoding="UTF-8"?>
<svg version="1.1" viewBox="0 0 1752 900" width="438" height="225" xmlns="http://www.w3.org/2000/svg">
<path transform="translate(0)" d="m0 0h1752v900h-1752z" fill="#FEFEFE"/>
<path transform="translate(853,318)" d="m0 0h42v205h-39l-1-1-1-14-7 8-16 8-8 2-17 1-17-2-17-7-9-7-8-7-10-14-5-11-3-12-1-9v-17l2-14 6-16 7-12 12-12 14-8 11-4 12-2h17l14 3 14 7 8 6z" fill="#020202"/>
<path transform="translate(1323,339)" d="m0 0h35l3 4 14 33 13 30 27 63 13 31 9 22-5 1h-35l-4-8-11-29v-2l-7 1-55 1h-22l-3 10-10 26-1 1h-40l2-6 18-42 13-30 11-25 33-77z" fill="#020202"/>
<path transform="translate(639,373)" d="m0 0 23 1 16 4 12 6 10 9 7 10 4 11 2 9v100h-37l-2-1 1-12-7 6-9 5-10 4-7 1h-27l-12-3-12-6-10-9-7-14-1-5v-18l3-10 5-9 7-7 12-6 13-3 11-1h49l-3-11-6-9-9-4-12-2-21 1-18 4-5 2-4-1-10-24-1-5 8-4 16-5 15-3z" fill="#020202"/>
<path transform="translate(1094,373)" d="m0 0 22 1 14 3 16 8 10 10 7 12 3 10 1 10v96h-38l-1-4v-8l-8 7-11 5-11 3h-29l-12-3-12-6-8-7-6-9-3-9-2-12 4-18 4-8 6-7 10-6 9-3 10-2 17-1h39v-9l-5-10-8-5-8-2h-25l-17 3-12 4h-2l-6-18-5-10v-3l16-6 16-4 7-1z" fill="#020202"/>
<path transform="translate(290,333)" d="m0 0h15l21 3 18 6 12 7 9 7 5 4 10 13 3 5-9 7-21 14-4-1-6-8-8-8-15-8-11-3h-21l-12 3-12 6-12 11-6 10-5 13-2 17 2 15 6 15 8 11 8 7 12 6 12 3h21l10-2 16-8 9-9 6-8 1-2 5 1 9 6 17 10 2 2-1 5-8 10-9 10-11 9-19 9-12 4-9 1h-30l-13-2-18-6-15-9-10-8-8-8-10-15-6-12-5-21-1-19 2-18 5-16 7-14 8-11 12-12 15-10 17-7 12-3z" fill="#020202"/>
<path transform="translate(402,376)" d="m0 0h41l1 92 4 10 5 6 10 5 10 2 11-2 10-4 5-5 6-9 3-10 1-85h40l1 56v62l-1 29h-38l-1-1-1-15-7 8-10 6-11 4-6 1h-23l-10-2-16-8-10-9-7-11-5-13-1-4-1-24z" fill="#020202"/>
<path transform="translate(1009,373)" d="m0 0h7v39l-15 1-13 4-9 5-8 9-4 9-1 82-1 1h-39v-147h38l1 1v18l9-10 14-8 5-2z" fill="#020202"/>
<path transform="translate(1454,339)" d="m0 0h27l10 1v182h-38v-182z" fill="#020202"/>
<path transform="translate(807,408)" d="m0 0h17l11 4 9 7 6 10 4 12 1 10-3 15-7 14-8 7-8 4-5 1h-17l-11-4-10-9-6-10-2-5-1-6v-17l4-13 7-10 9-6z" fill="#FEFEFE"/>
<path transform="translate(1339,384)" d="m0 0h3l14 34 11 28 2 4v3h-57l10-25 15-37z" fill="#FEFEFE"/>
<path transform="translate(627,461)" d="m0 0h45l1 1v13l-6 12-7 6-11 4-13 2-14-4-7-6-3-8 1-9 4-6 6-4z" fill="#FEFEFE"/>
<path transform="translate(1081,461)" d="m0 0h45l1 1-1 15-5 10-7 6-7 3-10 2h-10l-11-3-7-6-3-7v-8l5-8 6-4z" fill="#FEFEFE"/>
</svg>
