<?xml version="1.0" encoding="UTF-8"?>
<svg version="1.1" viewBox="0 0 2048 754" width="274" height="101" xmlns="http://www.w3.org/2000/svg">
<path transform="translate(0)" d="m0 0h2048v754h-2048z" fill="#FDFDFD"/>
<path transform="translate(614,387)" d="m0 0 7 6 16 15 12 12 8 7 20 20 8 10 1 2 1 29-1 26-2 8-2 6-2 11-4 6-4 3-9 1-1-3h-2v-9l7 3 3-2-1-8-6-8-5-3h-9l-7 4-5 6-1 6 3 12 1 11 5 10 2 3-1 6-6 5-3 4-13 4-5 3-9 2 1 5 11 17 8 11 8 8 14 8 9 5 1 4-2 1h-6l-17-8-9-7-9-9-11-19-6-14h-13l-5 1h-7l-8-1 6 14 5 9 6 19 7 11 3 9v11l-5 9-7 5-5 2h-10l-7-4-7-7-7-16-14-8-13-12-9-13-6-13-1-9 3-6 3 1 6 16 8 15 10 11 12 8 3 5 3-5 4-5 8-5 3-1h10l4 2v-2l-4-1-8-18-8-13-3-6-3-9-9-10-13-12-11-9-17-16-8-7-9-9 3-2 95-1 9-4 8-6 7-11 1-6 1-107z" fill="#0E111A"/>
<path transform="translate(281,110)" d="m0 0h21l8 3 8 8 16 10 17 9 28 13 16 10 10 8 7 8 1 4h-111l-14 1-10 3-10 9-4 5-2 9-1 116-50-50-8-7-11-14-5-7v-28l1-26 5-19 5-12 6-11 7-9 5-6 12-9 15-8 18-6z" fill="#0E111A"/>
<path transform="translate(188,414)" d="m0 0 6 4 15 14 13 12 17 16 22 22 1 2v13l3 9 7 9 8 7 8 3 67 1 12 11 8 7 7 7 8 7 28 28 6 5 3 4v2h-135l-22-1-12-2-16-6-15-9-12-11-7-7-9-14-6-13-5-17-1-9v-93z" fill="#0E111A"/>
<path transform="translate(477,110)" d="m0 0h112l14 2 20 5 14 6 12 8 12 11 9 12 8 15 5 16 3 13 1 13v99l-1 3h-2l-33-33-2-1v-2l-4-2-27-27-5-7-1-9v-20l-2-11-7-9-7-5-6-2-47-1-8-6-16-17-46-46-5-4z" fill="#0E111A"/>
<path transform="translate(1382,242)" d="m0 0h29v165l-6 2-19-1-2-2-3-11-8 5-11 7-11 3h-22l-10-3-11-6-12-11-7-9-5-11-2-11v-18l3-17 8-15 11-11 12-7 9-3 7-1h17l10 2 9 4 11 7 3 1-1-8v-31z" fill="#0E111A"/>
<path transform="translate(1187,287)" d="m0 0 19 1 15 4 12 7 7 9 5 11 2 9 1 32-1 47-1 1-8 1h-16l-2-1-2-8v-5l-8 6-9 6-12 3h-21l-13-4-10-7-6-9-3-8v-17l4-11 6-7 8-5 7-2 27-2h30l-3-11-7-8-11-4h-19l-15 3-9 5-4-2-8-17 1-5 8-4 18-6z" fill="#0E111A"/>
<path transform="translate(1796,288)" d="m0 0h29l12 3 12 6 6 5 6 9 4 10 2 11 1 13v52l-1 11-1 1h-21l-4-4-2-10-9 6-12 7-10 2h-21l-12-4-8-6-7-8-4-9-1-9 2-11 6-12 9-7 8-3 20-2 36-1-2-11-4-6-6-5-7-2h-16l-19 4-8 5h-3l-6-14-4-7 1-3 14-6 14-4z" fill="#0E111A"/>
<path transform="translate(1598,287)" d="m0 0 18 1 12 3 12 6 9 8 7 13 2 10v78l-1 2-19 2-6-2-3-7-2-5-13 10-9 3-5 1h-19l-11-3-11-6-7-8-4-11v-16l3-10 6-8 9-6 9-2 12-1 43-1-4-12-5-6-10-5-5-1h-15l-17 4-8 5-4-1-8-16-1-5 3-3 21-8 9-2z" fill="#0E111A"/>
<path transform="translate(1073,288)" d="m0 0h11l18 1 1 59v54l-1 6-3 1h-22l-3-3v-13l-6 4-10 7-8 4-9 2h-17l-11-3-12-7-9-10-6-12-2-9-1-11v-46l1-23h30l1 69 3 11 7 10 9 3h11l13-4 10-9 2-4 1-21 1-55z" fill="#0E111A"/>
<path transform="translate(894,287)" d="m0 0h22l12 3 15 8 10 9 5 5-2 4-10 7-7 6-4-1-10-8-11-4-12-1-9 2-10 6-6 7-5 10-1 11 3 12 4 8 8 8 10 4 4 1h9l14-5 8-6 5-3 6 1 4 5 9 6 1 5-8 9-11 7-11 5-9 2-17 1-15-2-12-5-11-7-11-11-8-14-4-15v-15l4-16 6-12 7-9 12-9 12-6z" fill="#0E111A"/>
<path transform="translate(613,256)" d="m0 0 6 4 39 39 8 7 17 16 3 4 1 11v13l1 22 5 2 10 7 12 6 10 2 4 2 6-8 10-7 3-1h9l8 4 7 8 4 10v9l-4 8-6 5-8 3h-12l-8-4-6-8-4-13h-11l-13-5-11-7-8-6 1 4v22l-8-6-10-12-10-14-14-18-11-11-8-7-11-10-1-2v-8l5 2 10 9 8 6 6 1 1-4-4-6-11-10-8-7-7-8v-10l8 6 10 9 12 12 15 20 12 17 8 12 8 6-3-8-10-18-10-15-12-17-12-14-14-14-8-7-3-3-1-4z" fill="#0E111A"/>
<path transform="translate(107,266)" d="m0 0h9l9 3 6 5 4 5 3 2 18 3 12 5 11 8 10 9 13 13 7 8 12 14 13 15 16 17 10 10 1 2v20l-7-6-20-20-9-11-13-17-12-14-7-10-7-14-10-9-13-8-13-5-11-1-4 2-1 4v7l9 8 8 7 7 7 9 11 10 13 8 11 2 3-1 5h2l4 8 32 32 7 8 11 12 18 20 1 2v20l-7-6-9-10-15-15-8-7-10-9-8-7-10-9-6-7-2-29-5-3-12-14-10-14-11-13-10-9-11-8-3-1-3 2-10 1-9-3-6-5-5-10v-11l5-10 6-5z" fill="#0E111A"/>
<path transform="translate(1516,287)" d="m0 0h7l1 1 1 14v10l-2 4-16 2-9 5-10 11-2 6-2 68h-27l-1-1-1-7v-110l1-1h26l2 1 1 11 4 1 8-6 6-5z" fill="#0E111A"/>
<path transform="translate(613,340)" d="m0 0 6 3 15 14 12 13 11 14 8 10 11 12 5 4 13 5 6 4 11 12 9 12 8 10 5-1 6-3h9l9 4 5 4 5 9 1 8-3 9-6 7-10 5h-11l-7-4-7-8-4-11 2-8v-7l-6-5-9-11-14-15-5-3-1 2v18l-2 2-54-54-8-7-9-10-1-3z" fill="#0E111A"/>
<path transform="translate(144,183)" d="m0 0 9 1 8 6 7 10 1 3v11l-3 8 1 5 12 15 7 12 6 12 9 10 7 8 39 39 14 16v32l-4-2-21-21-7-8-12-14-11-13-11-12-7-7-1-8v-17l-4-8-13-16-7-9-1-3-5-2-17-1-8-4-7-8-2-5v-10l6-12 5-4z" fill="#0E111A"/>
<path transform="translate(1342,313)" d="m0 0h9l9 2 9 6 7 8 4 8 1 4v16l-3 9-8 10-9 6-10 4h-11l-12-5-8-7-6-10-2-7v-16l3-9 7-9 5-4 11-5z" fill="#FEFEFE"/>
<path transform="translate(339,41)" d="m0 0h11l8 3 5 6 2 8v12l-3 6-8 8 6 7 5 9 3 6 2 5-3 2 1 4 36 24 16 12 14 12 10 9 5 7v2h-14l-8-1-8-7-7-8-11-10-15-9-31-15-16-8-13-8-6-4 4-2 10-1 27-1v-2l-7-10-6-10-5-4-12-5-4-5-2-7v-10l5-10 6-4z" fill="#0E111A"/>
<path transform="translate(1909,289)" d="m0 0h30v102l-1 17h-29z" fill="#0E111A"/>
<path transform="translate(450,308)" d="m0 0h18l11 3 14 7 10 8 13 13 9 15 4 9 3 16 1 17v18l-3 11-3 16-3 5-5-1 1-13 3-17v-38l-3-12-6-15-6-8-2-4-4-2-12-9-14-7-7-2h-17l-10 3-11 7-8 9-5 8-4 10v32l-5 17-9 17-10 13-9 10-7 9-2 1h-6l-1-6 4-6 10-10 9-11 8-12 6-14 4-18 2-18 1-2 2-18 3-7 8-10 11-8 12-5z" fill="#0E111A"/>
<path transform="translate(430,110)" d="m0 0h29l4 2 7 9 11 12 48 48v2l-4 1h-21l-8-6-8-8-8-7-10-9-11-9-15-14-12-11-5-6-2-1v-2z" fill="#0E111A"/>
<path transform="translate(404,526)" d="m0 0h34l7 7 14 11 15 13 9 8 6 8 7 12 4 9-1 2h-22l-10-11-7-8-4-3v-2h-2v-2l-4-2-11-10-14-11-17-14-5-6z" fill="#0E111A"/>
<path transform="translate(476,597)" d="m0 0 3 1 4 11 5 17 1 6v14l-1 4 6 1 10 6 6 8 3 6v9l-5 10-8 6-8 3-9-1-9-5-6-8-2-5v-11l7-10 7-6 1-5-4-27-6-19z" fill="#0E111A"/>
<path transform="translate(385,110)" d="m0 0h27l29 29 8 7 11 10 11 9 16 15v4h-11l-12-2-8-7-12-12-8-7-12-10-18-13-14-9-16-11-6-1v-1z" fill="#0E111A"/>
<path transform="translate(721,537)" d="m0 0h7l7 4 4 5 1 5-4 6-8 8-8 6-2 3 1 9 1 11-2 13-4 11-6 10-8 7-10 5-9 2h-8l-15-3-11-6-11-10-9-13-4-12v-2l6 2 7 10 8 11 9 7 11 5 4 1h16l9-4 8-7 5-8 3-9 1-11-2-14-2-7v-5l10-4 5-5 6-5 1-6h-6l-10 7-5 5h-3l-1-6 3-5 7-7z" fill="#0E111A"/>
<path transform="translate(450,526)" d="m0 0h27l6 5 7 8 22 22 8 7 11 10 8 7 8 9v2l-7 1h-30l-8-16-9-15-12-13-11-10-13-10-7-6z" fill="#0E111A"/>
<path transform="translate(453,327)" d="m0 0 16 1 12 4 9 5 9 8 7 10 7 15 2 7v36l-2 14-8 27-5 12-3 3h-5l-1-5 10-28 5-25 1-15-1-15-3-10-8-16-6-9-7-5-14-3h-13l-10 4-5 5-6 7-5 12-4-2-2-6 3-13 11-11 8-5z" fill="#0E111A"/>
<path transform="translate(462,288)" d="m0 0 10 1 1 1v6l-1 2h-15l-16 3-12 6-10 8-6 5-8 12-3 13-3 22-7 27-6 14-7 10-11 13-6 8h-2v2l-6-2-2-4 3-5 12-12 6-8 7-11 6-16 3-15 4-24 3-12 8-16 9-10 8-6 14-7 9-3z" fill="#0E111A"/>
<path transform="translate(369,526)" d="m0 0h23l12 13 13 12 10 8 11 9 10 9 8 7 7 8 2 5h-24l-6-4-12-13-38-38-8-7-5-4-3-3z" fill="#0E111A"/>
<path transform="translate(436,253)" d="m0 0 6 1-1 6-4 3-18 6-14 7-11 9-8 8-9 14-5 11-7 22-4 31-5 14-9 16-5 2-3-2v-6l11-21 2-11 2-18 6-24 9-20 7-11 11-12 7-7 11-7 14-7 10-3z" fill="#0E111A"/>
<path transform="translate(449,271)" d="m0 0h6v6l-7 3-21 6-14 7-10 9-8 11-9 17-3 13-5 37-6 14-8 13-9 12-3 3h-6l-2-3 1-5 11-13 7-10 4-11 5-14 1-15 2-17 8-20 9-15 8-8 8-6 10-6 12-4z" fill="#0E111A"/>
<path transform="translate(445,57)" d="m0 0h9l10 5 6 7 4 9v8l-4 7-7 6-10 3h-10l-6-3-7-7-3-6v-10l4-8 4-5 7-5z" fill="#0E111A"/>
<path transform="translate(441,215)" d="m0 0h26l21 3 11 4 2 1v6l-5 1-14-4-22-3h-12l-21 2-20 6-6 3-14 9-14 12-13 13-9 13-6 9-5 1-3-1 3-9 7-12 9-12 11-12 14-11 14-9 4 2 5 2 9-9 10-3z" fill="#0E111A"/>
<path transform="translate(293,54)" d="m0 0 9 1 6 3 5 6 3 7 1 10-3 9-7 6-7 3h-12l-8-5-6-8-2-11 3-10 5-6 8-4z" fill="#0E111A"/>
<path transform="translate(455,347)" d="m0 0 9 1 6 9 8 14 3 13v16l-3 20-5 19-8 18-6 10-10 13-7 8h-9l2-5 12-17 9-14 7-15 4-11 4-18 1-11v-11l-3-12-6-12-1-3h-7l-5 3-5 5-7 1-1-3 3-7 8-8z" fill="#0E111A"/>
<path transform="translate(413,239)" d="m0 0h5l-1 7-5 4-9 5-12 9-11 9-12 14-12 16-7 25-6 31-2 10-2 2h-3l-3-6 2-21 5-22 3-10 6-10 5-13 4-5 5-8 11-12 11-10 15-10z" fill="#0E111A"/>
<path transform="translate(1812,357)" d="m0 0h16l6 2 2 4-1 12-4 6-5 4-6 3-5 1h-18l-6-3-6-7-1-4v-7l4-6 5-3 4-1z" fill="#FEFEFE"/>
<path transform="translate(1606,357)" d="m0 0 22 1 1 1v7l-3 9-6 7-10 6-7 1h-12l-9-3-5-6-1-5v-7l3-5 7-4 3-1z" fill="#FEFEFE"/>
<path transform="translate(1176,358)" d="m0 0h40l2 2-1 8-3 7-7 8-6 4-10 2h-12l-9-3-4-4-1-3v-12l4-6z" fill="#FEFEFE"/>
<path transform="translate(190,339)" d="m0 0 5 5 9 10 12 16 12 14 16 17 16 16 1 4v16l-5-5-7-9-11-13-32-32-7-8-9-9-2-10 1-11z" fill="#0E111A"/>
<path transform="translate(1706,372)" d="m0 0h10l8 4 4 5 3 7-1 9-4 6-8 6-9 1-9-3-5-6-3-7v-8l5-8 6-5z" fill="#0E111A"/>
<path transform="translate(485,295)" d="m0 0 6 1 14 9 11 9 9 9 11 14 8 16 4 16 2 21v11l-1 1-7-1-2-1v-13l-4-27-9-20-10-13-12-11-15-10-4-4z" fill="#0E111A"/>
<path transform="translate(454,375)" d="m0 0h6l2 2 1 4v10l-2 24-6 18-8 17-8 12-13 16-5 6-8-1 1-5 6-8 11-13 11-19 6-15 5-16 2-8v-15z" fill="#0E111A"/>
<path transform="translate(1923,235)" d="m0 0 9 1 7 5 4 8 1 7-4 8-5 4-6 3h-10l-6-4-4-5-1-2v-12l4-7 5-4z" fill="#0E111A"/>
<path transform="translate(427,377)" d="m0 0 4 3-1 14-4 16-6 14-11 16-10 13-12 14-2 2-7-1-3-2 1-5 12-11 7-8 7-9 9-15 6-13 5-19 1-5z" fill="#0E111A"/>
<path transform="translate(465,270)" d="m0 0 19 4 15 6 15 9 11 8 11 9 8 9 6 10 1 6-4 2-8-7-12-13v-2h-2v-2l-4-2-10-9-18-10-14-5-16-5 1-7z" fill="#0E111A"/>
<path transform="translate(443,233)" d="m0 0h27l18 3 18 6 21 10 1 7-1 2-6-1-17-8-18-6-15-3-16-1-20 2h-8l-1-8 4-2z" fill="#0E111A"/>
<path transform="translate(687,560)" d="m0 0h5l8 16 2 7v22l-3 7-8 8-7 3h-15l-10-3-7-5-9-12-4-11-1-6 7 1 9 17 2 4 4 2 5 3 6 3 8-1 8-4 5-4 2-3v-19l-3-12-3-4z" fill="#0E111A"/>
<path transform="translate(640,546)" d="m0 0 5 1 9 4 20 12 5 4 8 17v13l-6 7-7 4-7-1-8-6-1-3 2-3 11 3 5-1 2-2-1-5-11-4-6-10 1-2 6 4 13 4-3-7-12-7-11-10-10-8z" fill="#0E111A"/>
<path transform="translate(750,384)" d="m0 0h6l6 4 5 8v8l-6 7-6 3-8-1-7-6-2-5 1-9 3-5z" fill="#FEFEFE"/>
<path transform="translate(447,65)" d="m0 0 8 1 8 7 2 4v7l-6 7-7 3h-8l-7-6-2-5 1-7 6-8z" fill="#FEFEFE"/>
<path transform="translate(483,661)" d="m0 0h9l6 4 5 6v9l-4 6-7 4h-7l-6-4-4-7-1-5 3-8z" fill="#FEFEFE"/>
<path transform="translate(743,457)" d="m0 0 7 2 6 5 3 6v6l-7 8-5 2h-7l-7-4-4-6v-6l4-6 7-6z" fill="#FEFEFE"/>
<path transform="translate(572,647)" d="m0 0 5 1 6 4 4 6 1 8-3 6-5 4-2 1h-8l-6-4-4-6v-10l4-5z" fill="#FEFEFE"/>
<path transform="translate(145,192)" d="m0 0 5 1 6 4 3 4 1 4v7l-3 5-3 3-3 1h-9l-6-4-3-4-1-7 4-8 6-5z" fill="#FEFEFE"/>
<path transform="translate(109,274)" d="m0 0 7 1 8 5 4 5-2 9-6 7-4 2-9-1-5-5-2-5v-8l4-7z" fill="#FEFEFE"/>
<path transform="translate(293,63)" d="m0 0 10 2 5 6v12l-4 5-7 3-7-1-6-4-3-5v-8l4-7z" fill="#FEFEFE"/>
<path transform="translate(433,424)" d="m0 0h2l1 7-7 14-8 10-12 14-7 8-2 2h-6l-3-4 9-11 14-15 7-10 7-11z" fill="#0E111A"/>
<path transform="translate(488,422)" d="m0 0h6l1 1v7l-5 13-4 11-7 15-6 12h-9l1-6 13-28 6-16 2-7z" fill="#0E111A"/>
<path transform="translate(469,346)" d="m0 0 8 2 7 6 7 10 5 13 1 29-2 7-1 1h-8l1-12 1-6v-15l-4-15-5-8-8-9-2-1z" fill="#0E111A"/>
<path transform="translate(492,258)" d="m0 0 10 2 16 8 18 12 4 4v8l-5-1-10-6-13-8-16-9-3-3z" fill="#0E111A"/>
<path transform="translate(342,48)" d="m0 0 6 1 7 5 2 3v8l-4 6-5 4-3 1-6-3-5-6-1-2 1-10 5-6z" fill="#FEFEFE"/>
<path transform="translate(450,251)" d="m0 0 22 1 8 2 2 3v6l-5 1-11-3-5-4-1-3-3 5-5 2-3-5-1-4z" fill="#0E111A"/>
<path transform="translate(443,383)" d="m0 0h4v10l-7 21-3 3h-2l-1-2v-9l4-13 3-9z" fill="#0E111A"/>
<path transform="translate(653,525)" d="m0 0 4 1 1 1v6l-4 4-12 5 2-9 3-5z" fill="#0E111A"/>
</svg>
